<svg width="50" height="52" viewBox="0 0 50 52" fill="none" xmlns="http://www.w3.org/2000/svg">
<path d="M0 51.6747L17.8507 0.81913H31.3666L49.2173 51.6747H37.5785L29.5918 26.9296C28.6134 23.6757 27.6008 20.3309 26.5541 16.895C25.5302 13.4363 24.4152 9.51125 23.2093 5.11969H26.1104C24.859 9.51125 23.7099 13.4363 22.6632 16.895C21.6392 20.3309 20.6153 23.6757 19.5914 26.9296L11.3316 51.6747H0ZM11.3316 40.5821V32.1858H37.9199V40.5821H11.3316Z" fill="white"/>
<path d="M24.6371 10.1461C25.1341 8.44119 25.5754 6.99381 26.1097 5.1188H23.2093C23.7242 6.99365 24.1554 8.44132 24.6371 10.1461Z" fill="#0066FF"/>
<path d="M17.8382 32.1852H11.3324V40.5817H15.0355L17.8382 32.1852Z" fill="#0066FF"/>
<path d="M17.8499 0.819977L0.000335693 51.6754H11.3324L15.0355 40.5817H11.3324V32.1852H17.8382L19.5921 26.9293C20.6161 23.6755 21.6385 20.3301 22.6624 16.8942C23.2622 14.9122 23.97 12.4344 24.637 10.1461C24.1554 8.44132 23.7242 6.99365 23.2093 5.1188H26.1097C25.5754 6.99381 25.134 8.44119 24.637 10.1461C25.2836 12.4346 25.9682 14.9121 26.555 16.8942C27.6017 20.3301 28.6137 23.6755 29.5921 26.9293L24.7565 10.5694L24.637 10.1461L27.5 0.819977H17.8499Z" fill="#0066FF"/>
</svg>
