<?xml version="1.0" encoding="UTF-8" standalone="no"?>
<!-- Created with Inkscape (http://www.inkscape.org/) -->

<svg
   width="115.75092mm"
   height="13.889019mm"
   viewBox="0 0 115.75092 13.889019"
   version="1.1"
   id="svg1"
   xmlns="http://www.w3.org/2000/svg"
   xmlns:svg="http://www.w3.org/2000/svg">
  <defs
     id="defs1" />
  <g
     id="layer1"
     transform="translate(-48.269314,-77.509576)">
    <g
       id="text1">
      <path
         style="-inkscape-font-specification:'Inter, @opsz=32,wght=700';fill:#000000;fill-opacity:1"
         d="m 48.269315,91.18185 4.722986,-13.455544 h 3.576105 L 61.291392,91.18185 H 58.211969 L 56.098816,84.634689 Q 55.710502,83.343318 55.295096,81.979703 54.88872,80.607057 54.4101,78.864157 h 0.767599 q -0.496682,1.7429 -0.912088,3.115546 -0.406375,1.363615 -0.812751,2.654986 l -2.185397,6.547161 z m 2.998148,-2.934934 v -2.221519 h 7.034812 v 2.221519 z M 62.384091,91.18185 V 77.726306 h 2.925903 l 4.325642,6.881292 q 0.198672,0.316069 0.505712,0.848873 0.307039,0.532803 0.64117,1.146882 0.343161,0.605048 0.650201,1.173973 l -0.31607,0.713415 q -0.02709,-0.614078 -0.05418,-1.408768 -0.02709,-0.803721 -0.03612,-1.544227 -0.009,-0.740507 -0.009,-1.155913 v -6.655527 h 2.772384 V 91.18185 h -2.934934 l -3.919266,-6.231091 q -0.243825,-0.388314 -0.614078,-1.011423 -0.370253,-0.63214 -0.830812,-1.42683 -0.451529,-0.80372 -0.939179,-1.697746 l 0.48765,-0.31607 q 0.05418,0.993362 0.08128,1.869327 0.02709,0.866934 0.03612,1.535196 0.009,0.659232 0.009,1.038516 V 91.18185 Z M 75.198465,80.110375 v -2.384069 h 10.936016 v 2.384069 H 82.061696 V 91.18185 H 79.280281 V 80.110375 Z M 87.543247,91.18185 V 77.726306 h 2.781414 v 5.400279 h 5.716349 v -5.400279 h 2.772384 V 91.18185 H 96.04101 v -5.671196 h -5.716349 v 5.671196 z m 13.283963,0 V 77.726306 h 5.38222 q 1.51714,0 2.61887,0.541834 1.11076,0.532803 1.70677,1.526166 0.60505,0.984331 0.60505,2.347947 0,1.327493 -0.63214,2.302794 -0.63214,0.975302 -1.77902,1.508105 -1.13785,0.523773 -2.68208,0.523773 h -3.54901 v -2.23055 h 3.54901 q 0.73148,0 1.26428,-0.261887 0.5328,-0.261886 0.82178,-0.731475 0.28898,-0.47862 0.28898,-1.11076 0,-0.650201 -0.28898,-1.11076 -0.28898,-0.469589 -0.82178,-0.731476 -0.5328,-0.261886 -1.27331,-0.261886 h -2.42922 V 91.18185 Z m 7.63083,0 -3.07942,-6.077571 h 2.91687 l 3.14264,6.077571 z m 3.47677,0 4.72299,-13.455544 h 3.5761 l 4.72299,13.455544 h -3.07943 l -2.11315,-6.547161 q -0.38831,-1.291371 -0.80372,-2.654986 -0.40638,-1.372646 -0.885,-3.115546 h 0.7676 q -0.49668,1.7429 -0.91208,3.115546 -0.40638,1.363615 -0.81276,2.654986 l -2.18539,6.547161 z m 2.99815,-2.934934 v -2.221519 h 7.03481 v 2.221519 z m 15.92702,3.151668 q -1.72484,0 -2.94396,-0.541834 -1.21913,-0.550865 -1.86933,-1.58938 -0.6502,-1.038515 -0.6502,-2.501467 h 2.68208 q 0.0181,0.740506 0.35219,1.264279 0.34316,0.523773 0.96627,0.803721 0.62311,0.279947 1.48101,0.279947 0.77663,0 1.34556,-0.207703 0.57795,-0.216733 0.89402,-0.605048 0.3251,-0.388314 0.3251,-0.912087 0,-0.433467 -0.25285,-0.749537 -0.24383,-0.3251 -0.77663,-0.568926 -0.52377,-0.243825 -1.38168,-0.424436 l -1.4178,-0.30704 q -2.00478,-0.433467 -2.98008,-1.363615 -0.9753,-0.930148 -0.9753,-2.375039 0,-1.228157 0.64117,-2.140244 0.64117,-0.921118 1.78805,-1.43586 1.15591,-0.514743 2.68208,-0.514743 1.54422,0 2.67304,0.523773 1.12883,0.523773 1.75193,1.499074 0.63214,0.966271 0.6773,2.320856 h -2.60081 q -0.0722,-0.95724 -0.7405,-1.508105 -0.66826,-0.550864 -1.75193,-0.550864 -0.67729,0 -1.2101,0.216733 -0.52377,0.207703 -0.83081,0.586987 -0.29801,0.379284 -0.29801,0.866934 0,0.415406 0.2348,0.722446 0.23479,0.298008 0.74953,0.523773 0.51474,0.225764 1.33653,0.406375 l 1.29137,0.279948 q 1.07463,0.234794 1.86029,0.577956 0.78566,0.334131 1.29138,0.80372 0.50571,0.460559 0.74953,1.065607 0.24383,0.605048 0.24383,1.363616 0,1.291371 -0.6502,2.23958 -0.64117,0.939179 -1.84224,1.444891 -1.19203,0.505712 -2.84463,0.505712 z m 9.75301,-13.672278 V 91.18185 h -2.78141 V 77.726306 Z m 1.40877,2.384069 v -2.384069 h 10.93602 v 2.384069 h -4.07279 V 91.18185 h -2.78141 V 80.110375 Z M 154.36655,91.18185 V 77.726306 h 9.65368 v 2.384069 h -6.87226 v 3.115546 h 6.35751 v 2.320855 h -6.35751 v 3.251004 h 6.87226 v 2.38407 z"
         id="path1" />
      <path
         d="m 54.78787,80.194071 c 0.131498,-0.451099 0.248266,-0.834055 0.389641,-1.330151 h -0.767395 c 0.136222,0.496054 0.25031,0.879086 0.377754,1.330151 z"
         style="-inkscape-font-specification:'Inter, @opsz=32,wght=700';fill:#0066ff;fill-opacity:1"
         id="path11" />
      <path
         d="m 57.264722,88.24681 h 1.037662 v -2.22157 h -1.754931 z"
         style="-inkscape-font-specification:'Inter, @opsz=32,wght=700';fill:#0066ff;fill-opacity:1"
         id="path10" />
      <path
         d="m 52.989014,86.02524 h -1.721342 v 2.22157 h 0.979785 z"
         style="-inkscape-font-specification:'Inter, @opsz=32,wght=700';fill:#0066ff;fill-opacity:1"
         id="path9" />
      <path
         d="m 52.992114,77.726522 -4.722709,13.455509 h 2.998267 l 0.979785,-2.935221 h -0.979785 v -2.22157 h 1.721342 l 0.464054,-1.390613 c 0.270917,-0.860914 0.541437,-1.746058 0.812354,-2.655135 0.158697,-0.52439 0.345958,-1.179975 0.522448,-1.785421 -0.127444,-0.451065 -0.241532,-0.834097 -0.377754,-1.330151 h 0.767395 c -0.141375,0.496096 -0.258143,0.879052 -0.389641,1.330151 0.171075,0.605489 0.352206,1.260999 0.507463,1.785421 0.276937,0.909077 0.544692,1.794221 0.803568,2.655135 l 0.448552,1.390613 h 1.754931 v 2.22157 h -1.037662 l 0.947229,2.935221 h 3.079398 L 56.56864,77.726522 Z"
         style="-inkscape-font-specification:'Inter, @opsz=32,wght=700';fill:#0066ff;fill-opacity:1"
         id="path8" />
    </g>
  </g>
</svg>
